<?xml version="1.0" standalone="no"?><!DOCTYPE svg PUBLIC "-//W3C//DTD SVG 1.1//EN" "http://www.w3.org/Graphics/SVG/1.1/DTD/svg11.dtd"><svg t="1639893585679" class="icon" viewBox="0 0 1024 1024" version="1.1" xmlns="http://www.w3.org/2000/svg" p-id="4299" xmlns:xlink="http://www.w3.org/1999/xlink" width="200" height="200"><defs><style type="text/css"></style></defs><path d="M512 512m-512 0a512 512 0 1 0 1024 0 512 512 0 1 0-1024 0Z" fill="#FFDA44" p-id="4300"></path><path d="M197.485714 512a314.514286 314.404571 90 1 0 628.809143 0 314.514286 314.404571 90 1 0-628.809143 0Z" fill="#FFFFFF" p-id="4301"></path><path d="M782.409143 510.829714C788.041143 660.845714 656.457143 782.628571 510.098286 782.628571a265.077029 265.077029 0 0 1-243.346286-163.84c-4.169143-6.290286 143.213714 73.216 143.213714 73.216S544.914286 480.329143 639.634286 456.411429c68.900571-17.846857 142.336 54.784 142.774857 54.418285z" fill="#32C4EE" p-id="4302"></path><path d="M603.721143 765.220571a258.991543 258.991543 0 0 1-93.622857 17.408 265.362286 265.362286 0 0 1-246.710857-172.105142c0.512 0.658286 78.409143-84.333714 146.578285-63.488 74.093714 22.747429 194.194286 217.819429 193.755429 218.185142z" fill="#8ED420" p-id="4303"></path><path d="M380.342857 431.542857m-51.2 0a51.2 51.2 0 1 0 102.4 0 51.2 51.2 0 1 0-102.4 0Z" fill="#FF8F44" p-id="4304"></path></svg>